<svg xmlns="http://www.w3.org/2000/svg" viewBox="0 0 256 256" role="img" aria-label="PickupRoster">
  <title>PickupRoster</title>
  <rect width="256" height="256" rx="56" fill="#3D6B9A"/>
  <g transform="translate(-37, -33.25) scale(1.25)">
    <g transform="translate(32, 80)">
      <path d="M8 60
               Q8 40 28 40
               L44 40
               L64 12
               Q70 4 82 4
               L128 4
               Q140 4 146 12
               L166 40
               L184 40
               Q192 40 192 48
               L192 72
               Q192 80 184 80
               L172 80
               A12 12 0 1 1 148 80
               L52 80
               A12 12 0 1 1 28 80
               L16 80
               Q8 80 8 72 Z"
            fill="#F9F8F5"/>
      <path d="M68 40 L80 16 Q82 12 86 12 L124 12 Q128 12 130 16 L142 40 Z"
            fill="#3D6B9A"/>
      <line x1="105" y1="12" x2="105" y2="40" stroke="#F9F8F5" stroke-width="2.5"/>
      <circle cx="40" cy="80" r="14" fill="#1A1917"/>
      <circle cx="160" cy="80" r="14" fill="#1A1917"/>
      <circle cx="40" cy="80" r="5" fill="#A86C10"/>
      <circle cx="160" cy="80" r="5" fill="#A86C10"/>
    </g>
  </g>
</svg>
